<?xml version="1.0" standalone="no"?><!DOCTYPE svg PUBLIC "-//W3C//DTD SVG 1.1//EN" "http://www.w3.org/Graphics/SVG/1.1/DTD/svg11.dtd"><svg t="1709604033128" class="icon" viewBox="0 0 1024 1024" version="1.1" xmlns="http://www.w3.org/2000/svg" p-id="2072" xmlns:xlink="http://www.w3.org/1999/xlink" width="200" height="200"><path d="M328 911.2C-12.8 882.4 68.8 531.2 68.8 531.2 82.4 474.4 120.8 448 171.2 448c57.6 0 104 46.4 104 104 0 43.2-26.4 80.8-64 96-32.8 39.2 41.6 78.4 105.6 120l408.8-1.6c63.2-40.8 134.4-80 102.4-118.4-37.6-16-64-52.8-64-96 0-57.6 46.4-104 104-104 50.4 0 88.8 26.4 101.6 83.2s81.6 351.2-259.2 380H328z" fill="#FEF8F8" p-id="2073"></path><path d="M328 915.2c-99.2-8-172-44-217.6-106.4C28 695.2 64.8 532 65.6 530.4c12.8-56 50.4-86.4 105.6-86.4 59.2 0 108 48.8 108 108 0 43.2-25.6 82.4-65.6 99.2-4.8 6.4-7.2 12.8-6.4 20 4 24.8 47.2 52.8 89.6 79.2 7.2 4 13.6 8.8 20.8 12.8l406.4-1.6c5.6-4 12-7.2 17.6-11.2 42.4-26.4 85.6-54.4 89.6-79.2 0.8-7.2-0.8-13.6-6.4-20-40-16.8-65.6-56-65.6-99.2 0-59.2 48.8-108 108-108 56 0 93.6 30.4 105.6 86.4 0 1.6 36.8 164.8-44.8 277.6-45.6 62.4-118.4 98.4-217.6 106.4l-382.4 0.8z m0-8h382.4c96-8 167.2-42.4 211.2-103.2 80-110.4 44-269.6 44-271.2-12-52-46.4-80-98.4-80-55.2 0-100 44.8-100 100 0 40.8 24 76.8 61.6 92l1.6 0.8c7.2 8.8 10.4 17.6 8.8 27.2-4.8 28.8-48 56-93.6 84.8-6.4 4-12.8 8-18.4 12l-0.8 0.8h-0.8l-409.6 1.6-0.8-0.8c-7.2-4.8-14.4-8.8-21.6-13.6-45.6-28.8-88.8-56-93.6-84.8-1.6-9.6 1.6-18.4 8.8-27.2l0.8-0.8h0.8C248 629.6 272 592.8 272 552.8c0-55.2-44.8-100-100-100-51.2 0-86.4 28.8-98.4 80 0 1.6-36 161.6 44 271.2C160.8 864 232 899.2 328 907.2z" fill="#F3A9AA" p-id="2074"></path><path d="M219.2 714.4a300 280 0 1 0 600 0 300 280 0 1 0-600 0Z" fill="#AED6B0" p-id="2075"></path><path d="M819.2 674.4v59.2c0 85.6-166.4 140.8-300 140.8S222.4 816.8 219.2 736c-0.8-21.6 0-40 0-61.6 0-110.4 134.4-200 300-200s300 89.6 300 200z" fill="#E94744" p-id="2076"></path><path d="M906.4 371.2C887.2 224 812.8 48 812.8 48s-112.8 24.8-200 64c-30.4-6.4-61.6-10.4-93.6-10.4-32.8 0-64.8 4-95.2 10.4-88-39.2-201.6-64-201.6-64s-80.8 192.8-96 343.2c-4.8 23.2-8 46.4-8 70.4 0 199.2 179.2 360 400 360s400-160.8 400-360c0.8-31.2-4-61.6-12-90.4z" fill="#FEF8F8" p-id="2077"></path><path d="M519.2 825.6c-222.4 0-404-163.2-404-364 0-24 2.4-48 8-71.2 15.2-148.8 95.2-342.4 96-344l1.6-3.2 3.2 0.8c0.8 0 113.6 25.6 200.8 64 61.6-13.6 126.4-13.6 188 0 87.2-38.4 198.4-63.2 200-64l3.2-0.8 1.6 3.2c0.8 1.6 74.4 178.4 93.6 324 8.8 29.6 12.8 60.8 12.8 91.2-0.8 200.8-182.4 364-404.8 364zM224.8 52.8c-10.4 25.6-80 200.8-94.4 339.2-4.8 23.2-8 47.2-8 70.4 0 196 177.6 356 396 356s396-160 396-356c0-30.4-4-60-12.8-89.6v-0.8c-17.6-134.4-81.6-295.2-92-319.2-19.2 4.8-118.4 28-196 63.2l-0.8 0.8h-1.6c-61.6-13.6-125.6-12.8-187.2 0h-1.6l-1.6-0.8C344 80.8 244 56.8 224.8 52.8z" fill="#F3A9AA" p-id="2078"></path><path d="M841.6 231.2C816.8 149.6 790.4 88 790.4 88s-49.6 11.2-108.8 29.6c64 24.8 119.2 64 160 113.6zM359.2 119.2C298.4 99.2 246.4 88 246.4 88s-29.6 71.2-56 160c40.8-56 100-100.8 168.8-128.8z" fill="#E94744" p-id="2079"></path><path d="M189.6 323.2c105.6-88.8 300.8-5.6 248.8 24.8-18.4 10.4-89.6-79.2-248.8-24.8zM847.2 323.2c-105.6-88.8-300.8-5.6-248.8 24.8 18.4 10.4 90.4-79.2 248.8-24.8z" fill="#040000" p-id="2080"></path><path d="M507.2 440.8l-25.6 28c-4.8 5.6-1.6 15.2 6.4 15.2h63.2c7.2 0 11.2-9.6 6.4-15.2l-25.6-28c-7.2-8-18.4-8-24.8 0z" fill="#E94744" p-id="2081"></path><path d="M515.2 474.4h8v30.4h-8z" fill="#E94744" p-id="2082"></path><path d="M647.2 556c-20.8 0-40-11.2-60-22.4-20.8-12-43.2-24.8-68-24.8-25.6 0-48 12.8-69.6 25.6-20 11.2-38.4 22.4-58.4 22.4-72 0-83.2-41.6-84-44-0.8-2.4 0.8-4 3.2-4.8 2.4-0.8 4 0.8 4.8 3.2 0 1.6 10.4 37.6 76 37.6 17.6 0 35.2-10.4 54.4-21.6 22.4-12.8 45.6-26.4 73.6-26.4 27.2 0 50.4 13.6 72 26.4 19.2 11.2 36.8 21.6 56 21.6 61.6 0 76-36.8 76-37.6 0.8-2.4 3.2-3.2 4.8-2.4 2.4 0.8 3.2 3.2 2.4 4.8 0 0.8-15.2 42.4-83.2 42.4z" fill="#E94744" p-id="2083"></path><path d="M78.4 736C44.8 636 68.8 531.2 68.8 531.2 82.4 474.4 120.8 448 171.2 448c57.6 0 104 46.4 104 104 0 43.2-26.4 80.8-64 96-14.4 16.8-8.8 33.6 7.2 51.2" fill="#FEF8F8" p-id="2084"></path><path d="M74.4 737.6C40.8 637.6 64.8 531.2 65.6 530.4c12.8-56 50.4-86.4 105.6-86.4 59.2 0 108 48.8 108 108 0 43.2-25.6 82.4-65.6 99.2-11.2 13.6-8.8 28 8 44.8l-5.6 5.6c-19.2-20-21.6-39.2-7.2-56l0.8-0.8h0.8C248 629.6 272 592.8 272 552.8c0-55.2-44.8-100-100-100-51.2 0-86.4 28.8-98.4 80 0 0.8-23.2 104.8 8.8 202.4l-8 2.4z" fill="#F3A9AA" p-id="2085"></path><path d="M819.2 700c18.4-18.4 23.2-34.4 8-52-37.6-16-64-52.8-64-96 0-57.6 46.4-104 104-104 50.4 0 88.8 26.4 101.6 83.2s23.2 100-6.4 197.6" fill="#FEF8F8" p-id="2086"></path><path d="M966.4 729.6l-8-1.6c28.8-95.2 7.2-194.4 6.4-196-12-52-46.4-80-98.4-80-55.2 0-100 44.8-100 100 0 40.8 24 76.8 61.6 92l1.6 0.8c20.8 24.8 4.8 44.8-8 57.6l-5.6-5.6c18.4-17.6 20.8-31.2 8.8-45.6-40-16.8-65.6-56-65.6-99.2 0-59.2 48.8-108 108-108 56 0 93.6 30.4 105.6 86.4 0.8 0.8 23.2 101.6-6.4 199.2z" fill="#F3A9AA" p-id="2087"></path><path d="M827.2 625.6c-0.8 0-1.6 0-2.4-0.8-21.6-15.2-34.4-32-38.4-50.4-4-22.4 7.2-38.4 7.2-39.2 1.6-1.6 4-2.4 5.6-0.8 1.6 1.6 2.4 4 0.8 5.6 0 0-9.6 14.4-6.4 33.6 3.2 16.8 14.4 32 34.4 45.6 1.6 1.6 2.4 4 0.8 5.6 1.6 0 0 0.8-1.6 0.8zM867.2 617.6c-0.8 0-1.6 0-2.4-0.8-21.6-15.2-34.4-32-38.4-50.4-4-22.4 7.2-38.4 7.2-39.2 1.6-1.6 4-2.4 5.6-0.8 1.6 1.6 2.4 4 0.8 5.6 0 0-9.6 14.4-6.4 33.6 3.2 16.8 14.4 32 34.4 45.6 1.6 1.6 2.4 4 0.8 5.6 1.6 0 0 0.8-1.6 0.8zM907.2 609.6c-0.8 0-1.6 0-2.4-0.8-21.6-15.2-34.4-32-38.4-50.4-4-22.4 7.2-38.4 7.2-39.2 1.6-1.6 4-2.4 5.6-0.8 1.6 1.6 2.4 4 0.8 5.6 0 0-9.6 14.4-6.4 33.6 3.2 16.8 14.4 32 34.4 45.6 1.6 1.6 2.4 4 0.8 5.6 1.6 0 0 0.8-1.6 0.8zM211.2 625.6c-1.6 0-2.4-0.8-3.2-1.6-1.6-1.6-0.8-4 0.8-5.6 20-13.6 32-28.8 34.4-45.6 3.2-19.2-6.4-33.6-6.4-33.6-1.6-1.6-0.8-4 0.8-5.6 1.6-1.6 4-0.8 5.6 0.8 0.8 0.8 12 16.8 7.2 39.2-3.2 18.4-16 36-38.4 50.4 0 1.6-0.8 1.6-0.8 1.6zM171.2 617.6c-1.6 0-2.4-0.8-3.2-1.6-1.6-1.6-0.8-4 0.8-5.6 20-13.6 32-28.8 34.4-45.6 3.2-19.2-6.4-33.6-6.4-33.6-1.6-1.6-0.8-4 0.8-5.6 1.6-1.6 4-0.8 5.6 0.8 0.8 0.8 12 16.8 7.2 39.2-3.2 18.4-16 36-38.4 50.4 0 1.6-0.8 1.6-0.8 1.6zM131.2 609.6c-1.6 0-2.4-0.8-3.2-1.6-1.6-1.6-0.8-4 0.8-5.6 20-13.6 32-28.8 34.4-45.6 3.2-19.2-6.4-33.6-6.4-33.6-1.6-1.6-0.8-4 0.8-5.6 1.6-1.6 4-0.8 5.6 0.8 0.8 0.8 12 16.8 7.2 39.2-3.2 18.4-16 36-38.4 50.4 0 1.6-0.8 1.6-0.8 1.6z" fill="#E94744" p-id="2088"></path><path d="M519.2 901.6m-72 0a72 72 0 1 0 144 0 72 72 0 1 0-144 0Z" fill="#F5C71D" p-id="2089"></path><path d="M591.2 908h-144c-4.8 0-8-3.2-8-8s3.2-8 8-8h144c4.8 0 8 3.2 8 8 0 4-3.2 8-8 8zM539.2 908c0 11.2-8.8 20-20 20s-20-8.8-20-20" fill="#F49E15" p-id="2090"></path></svg>